<mxfile modified="2022-07-20T01:11:31.440Z" host="app.diagrams.net" agent="5.0 (Macintosh; Intel Mac OS X 10_15_7) AppleWebKit/537.36 (KHTML, like Gecko) Chrome/103.0.0.0 Safari/537.36" etag="DrgCwxmgNBx8v94DyPc2" version="20.1.1" type="github">
  <diagram id="Ht1M8jgEwFfnCIfOTk4-" name="Page-1">
    <mxGraphModel dx="1666" dy="771" grid="1" gridSize="10" guides="1" tooltips="1" connect="1" arrows="1" fold="1" page="1" pageScale="1" pageWidth="1169" pageHeight="827" math="0" shadow="0">
      <root>
        <mxCell id="0" />
        <mxCell id="1" parent="0" />
        <mxCell id="UEzPUAAOIrF-is8g5C7q-74" value="AWS Cloud" style="points=[[0,0],[0.25,0],[0.5,0],[0.75,0],[1,0],[1,0.25],[1,0.5],[1,0.75],[1,1],[0.75,1],[0.5,1],[0.25,1],[0,1],[0,0.75],[0,0.5],[0,0.25]];outlineConnect=0;gradientColor=none;html=1;whiteSpace=wrap;fontSize=12;fontStyle=0;shape=mxgraph.aws4.group;grIcon=mxgraph.aws4.group_aws_cloud_alt;strokeColor=#232F3E;fillColor=none;verticalAlign=top;align=left;spacingLeft=30;fontColor=#232F3E;dashed=0;labelBackgroundColor=#ffffff;container=1;pointerEvents=0;collapsible=0;recursiveResize=0;" parent="1" vertex="1">
          <mxGeometry x="120" y="80" width="820" height="410" as="geometry" />
        </mxCell>
        <mxCell id="76puuDSHmPxs89M5ZQmI-17" value="" style="rounded=1;arcSize=10;dashed=1;strokeColor=#F59D56;fillColor=none;gradientColor=none;dashPattern=8 4;strokeWidth=2;" parent="UEzPUAAOIrF-is8g5C7q-74" vertex="1">
          <mxGeometry x="560" y="210" width="220" height="180" as="geometry" />
        </mxCell>
        <mxCell id="76puuDSHmPxs89M5ZQmI-1" value="" style="sketch=0;outlineConnect=0;fontColor=#232F3E;gradientColor=none;fillColor=#232F3D;strokeColor=none;dashed=0;verticalLabelPosition=bottom;verticalAlign=top;align=center;html=1;fontSize=12;fontStyle=0;aspect=fixed;pointerEvents=1;shape=mxgraph.aws4.user;" parent="UEzPUAAOIrF-is8g5C7q-74" vertex="1">
          <mxGeometry x="30" y="60" width="78" height="78" as="geometry" />
        </mxCell>
        <mxCell id="76puuDSHmPxs89M5ZQmI-4" style="edgeStyle=orthogonalEdgeStyle;rounded=0;orthogonalLoop=1;jettySize=auto;html=1;entryX=0;entryY=0.5;entryDx=0;entryDy=0;entryPerimeter=0;strokeWidth=2;" parent="UEzPUAAOIrF-is8g5C7q-74" source="76puuDSHmPxs89M5ZQmI-2" target="76puuDSHmPxs89M5ZQmI-3" edge="1">
          <mxGeometry relative="1" as="geometry" />
        </mxCell>
        <mxCell id="76puuDSHmPxs89M5ZQmI-2" value="" style="sketch=0;points=[[0,0,0],[0.25,0,0],[0.5,0,0],[0.75,0,0],[1,0,0],[0,1,0],[0.25,1,0],[0.5,1,0],[0.75,1,0],[1,1,0],[0,0.25,0],[0,0.5,0],[0,0.75,0],[1,0.25,0],[1,0.5,0],[1,0.75,0]];outlineConnect=0;fontColor=#232F3E;gradientColor=#945DF2;gradientDirection=north;fillColor=#5A30B5;strokeColor=#ffffff;dashed=0;verticalLabelPosition=bottom;verticalAlign=top;align=center;html=1;fontSize=12;fontStyle=0;aspect=fixed;shape=mxgraph.aws4.resourceIcon;resIcon=mxgraph.aws4.route_53;" parent="UEzPUAAOIrF-is8g5C7q-74" vertex="1">
          <mxGeometry x="170" y="60" width="78" height="78" as="geometry" />
        </mxCell>
        <mxCell id="76puuDSHmPxs89M5ZQmI-25" style="edgeStyle=orthogonalEdgeStyle;rounded=0;orthogonalLoop=1;jettySize=auto;html=1;strokeWidth=2;" parent="UEzPUAAOIrF-is8g5C7q-74" source="76puuDSHmPxs89M5ZQmI-3" target="76puuDSHmPxs89M5ZQmI-9" edge="1">
          <mxGeometry relative="1" as="geometry" />
        </mxCell>
        <mxCell id="76puuDSHmPxs89M5ZQmI-27" style="edgeStyle=orthogonalEdgeStyle;rounded=0;orthogonalLoop=1;jettySize=auto;html=1;strokeWidth=2;" parent="UEzPUAAOIrF-is8g5C7q-74" source="76puuDSHmPxs89M5ZQmI-3" target="76puuDSHmPxs89M5ZQmI-19" edge="1">
          <mxGeometry relative="1" as="geometry">
            <Array as="points">
              <mxPoint x="480" y="99" />
              <mxPoint x="480" y="296" />
            </Array>
          </mxGeometry>
        </mxCell>
        <mxCell id="76puuDSHmPxs89M5ZQmI-3" value="" style="sketch=0;points=[[0,0,0],[0.25,0,0],[0.5,0,0],[0.75,0,0],[1,0,0],[0,1,0],[0.25,1,0],[0.5,1,0],[0.75,1,0],[1,1,0],[0,0.25,0],[0,0.5,0],[0,0.75,0],[1,0.25,0],[1,0.5,0],[1,0.75,0]];outlineConnect=0;fontColor=#232F3E;gradientColor=#945DF2;gradientDirection=north;fillColor=#5A30B5;strokeColor=#ffffff;dashed=0;verticalLabelPosition=bottom;verticalAlign=top;align=center;html=1;fontSize=12;fontStyle=0;aspect=fixed;shape=mxgraph.aws4.resourceIcon;resIcon=mxgraph.aws4.cloudfront;" parent="UEzPUAAOIrF-is8g5C7q-74" vertex="1">
          <mxGeometry x="330" y="60" width="78" height="78" as="geometry" />
        </mxCell>
        <mxCell id="76puuDSHmPxs89M5ZQmI-6" value="CloudFront" style="text;html=1;align=center;verticalAlign=middle;resizable=0;points=[];autosize=1;strokeColor=none;fillColor=none;" parent="UEzPUAAOIrF-is8g5C7q-74" vertex="1">
          <mxGeometry x="328" y="138" width="80" height="30" as="geometry" />
        </mxCell>
        <mxCell id="76puuDSHmPxs89M5ZQmI-9" value="" style="sketch=0;points=[[0,0,0],[0.25,0,0],[0.5,0,0],[0.75,0,0],[1,0,0],[0,1,0],[0.25,1,0],[0.5,1,0],[0.75,1,0],[1,1,0],[0,0.25,0],[0,0.5,0],[0,0.75,0],[1,0.25,0],[1,0.5,0],[1,0.75,0]];outlineConnect=0;fontColor=#232F3E;gradientColor=#60A337;gradientDirection=north;fillColor=#277116;strokeColor=#ffffff;dashed=0;verticalLabelPosition=bottom;verticalAlign=top;align=center;html=1;fontSize=12;fontStyle=0;aspect=fixed;shape=mxgraph.aws4.resourceIcon;resIcon=mxgraph.aws4.s3;" parent="UEzPUAAOIrF-is8g5C7q-74" vertex="1">
          <mxGeometry x="640" y="60" width="78" height="78" as="geometry" />
        </mxCell>
        <mxCell id="76puuDSHmPxs89M5ZQmI-14" value="" style="rounded=1;arcSize=10;dashed=1;strokeColor=#F59D56;fillColor=none;gradientColor=none;dashPattern=8 4;strokeWidth=2;" parent="UEzPUAAOIrF-is8g5C7q-74" vertex="1">
          <mxGeometry x="560" y="16" width="220" height="164" as="geometry" />
        </mxCell>
        <mxCell id="76puuDSHmPxs89M5ZQmI-16" value="Static Contents" style="text;html=1;align=center;verticalAlign=middle;resizable=0;points=[];autosize=1;strokeColor=none;fillColor=none;fontStyle=1" parent="UEzPUAAOIrF-is8g5C7q-74" vertex="1">
          <mxGeometry x="565" y="20" width="110" height="30" as="geometry" />
        </mxCell>
        <mxCell id="76puuDSHmPxs89M5ZQmI-18" value="Dynamic Contents" style="text;html=1;align=center;verticalAlign=middle;resizable=0;points=[];autosize=1;strokeColor=none;fillColor=none;fontStyle=1" parent="UEzPUAAOIrF-is8g5C7q-74" vertex="1">
          <mxGeometry x="565" y="220" width="130" height="30" as="geometry" />
        </mxCell>
        <mxCell id="76puuDSHmPxs89M5ZQmI-19" value="" style="sketch=0;outlineConnect=0;fontColor=#232F3E;gradientColor=none;fillColor=#4D27AA;strokeColor=none;dashed=0;verticalLabelPosition=bottom;verticalAlign=top;align=center;html=1;fontSize=12;fontStyle=0;aspect=fixed;pointerEvents=1;shape=mxgraph.aws4.application_load_balancer;" parent="UEzPUAAOIrF-is8g5C7q-74" vertex="1">
          <mxGeometry x="640" y="257" width="78" height="78" as="geometry" />
        </mxCell>
        <mxCell id="76puuDSHmPxs89M5ZQmI-20" value="Application&lt;br&gt;Load Balancer" style="text;html=1;align=center;verticalAlign=middle;resizable=0;points=[];autosize=1;strokeColor=none;fillColor=none;" parent="UEzPUAAOIrF-is8g5C7q-74" vertex="1">
          <mxGeometry x="629" y="340" width="100" height="40" as="geometry" />
        </mxCell>
        <mxCell id="76puuDSHmPxs89M5ZQmI-21" value="S3 Bucket" style="text;html=1;align=center;verticalAlign=middle;resizable=0;points=[];autosize=1;strokeColor=none;fillColor=none;" parent="UEzPUAAOIrF-is8g5C7q-74" vertex="1">
          <mxGeometry x="640" y="138" width="80" height="30" as="geometry" />
        </mxCell>
        <mxCell id="UEzPUAAOIrF-is8g5C7q-88" value="" style="edgeStyle=orthogonalEdgeStyle;rounded=0;orthogonalLoop=1;jettySize=auto;html=1;endArrow=open;endFill=0;strokeWidth=2;" parent="1" edge="1">
          <mxGeometry relative="1" as="geometry">
            <mxPoint x="238" y="179" as="sourcePoint" />
            <mxPoint x="280.0082725615315" y="179" as="targetPoint" />
          </mxGeometry>
        </mxCell>
        <mxCell id="76puuDSHmPxs89M5ZQmI-8" value="Route 53" style="text;html=1;align=center;verticalAlign=middle;resizable=0;points=[];autosize=1;strokeColor=none;fillColor=none;" parent="1" vertex="1">
          <mxGeometry x="295" y="215" width="70" height="30" as="geometry" />
        </mxCell>
      </root>
    </mxGraphModel>
  </diagram>
</mxfile>
